<?xml version="1.0" encoding="UTF-8"?>
<svg width="1200pt" height="1200pt" version="1.1" viewBox="0 0 1200 1200" xmlns="http://www.w3.org/2000/svg">
 <path d="m940 650c0 16.57-13.43 30-30 30s-30-13.43-30-30 13.43-30 30-30 30 13.43 30 30z" fill="#00b395"/>
 <path d="m1160 804.6v-89.203c-0.015625-4.8945-1.8047-9.6172-5.0391-13.297-3.2305-3.6758-7.6875-6.0586-12.539-6.7031l-61.461-7.5586c-3.6602-0.44922-7.125-1.8984-10.016-4.1914-2.8867-2.2969-5.082-5.3438-6.3438-8.8086-30.055-74.125-84.758-135.62-154.88-174.1-6.0234-3.6094-9.7148-10.113-9.7188-17.137v-105c0-5.7461-2.6562-11.164-7.1992-14.68-4.4805-3.5234-10.344-4.7578-15.859-3.3438-15.84 4.3672-31.191 10.332-45.82 17.801-22.34 37.328-51.363 70.215-85.621 97.02 12.762 3 20 5.3594 20.82 5.6406 6.7891 2.25 11.859 7.9531 13.305 14.957s-0.95703 14.246-6.3008 19-12.816 6.293-19.605 4.043c-50.066-13.66-101.83-20.07-153.72-19.039-92.68 0-130.7 17.719-131.06 17.898-4.75 2.3711-10.242 2.7617-15.277 1.082-5.0352-1.6836-9.1914-5.293-11.562-10.039-2.3711-4.75-2.7617-10.242-1.082-15.277 1.6836-5.0352 5.293-9.1914 10.039-11.562 0.42188-0.19922 3.2188-1.5391 8.3984-3.4219h0.003907c-14.777-9.5508-28.535-20.586-41.062-32.941-86.52 23.02-164.83 69.887-226 135.26-4.5039 5.0859-11.273 7.5625-18 6.5781-48.094-5.9844-94.344-22.207-135.64-47.578 9.7812 41.422 30.699 98.281 82 129.52 3.7266 2.2656 6.6133 5.6875 8.2188 9.7461 1.6016 4.0586 1.8359 8.5312 0.66016 12.734-6.3555 22.109-9.5977 44.996-9.6406 68 0 113.82 80.199 219.58 214.54 282.92 5.207 2.4492 9.1094 7.0273 10.699 12.559l25.801 90c1.1914 4.1719 3.7031 7.8477 7.1641 10.465 3.4609 2.6211 7.6758 4.043 12.016 4.0547h99.582c4.3203 0.011719 8.5273-1.3867 11.98-3.9805 3.4531-2.5977 5.9648-6.2461 7.1602-10.398l9.6406-33.879-0.003906-0.003907c1.2734-4.4766 4.0664-8.3672 7.8984-11.008 3.832-2.6406 8.4688-3.8594 13.102-3.4492 40.207 3.5977 80.656 3.5977 120.86 0 4.6328-0.41016 9.2695 0.80859 13.102 3.4492s6.625 6.5312 7.8984 11.008l9.6016 33.781h-0.003907c1.1953 4.168 3.7148 7.832 7.1719 10.441 3.4609 2.6133 7.6758 4.0312 12.008 4.0391h99.582c4.3203 0.011719 8.5273-1.3867 11.98-3.9805 3.4531-2.5977 5.9648-6.2461 7.1602-10.398l25.84-90c1.582-5.5234 5.4648-10.102 10.66-12.562 98.898-46.801 169.62-117.1 199.16-198 1.2617-3.4648 3.457-6.5117 6.3438-8.8047 2.8906-2.293 6.3555-3.7461 10.016-4.1953l61.602-7.5781h-0.003906c4.8125-0.66406 9.2227-3.0391 12.426-6.6914 3.2031-3.6484 4.9844-8.332 5.0156-13.188zm-250-84.602c-18.566 0-36.371-7.375-49.496-20.504-13.129-13.125-20.504-30.93-20.504-49.496s7.375-36.371 20.504-49.496c13.125-13.129 30.93-20.504 49.496-20.504s36.371 7.375 49.496 20.504c13.129 13.125 20.504 30.93 20.504 49.496s-7.375 36.371-20.504 49.496c-13.125 13.129-30.93 20.504-49.496 20.504z" fill="#00b395"/>
 <path d="m741.42 373.14 27.48 27.48h-0.003906c28.469-34.242 45.926-76.285 50.082-120.62h-38.98c-7.1445 0-13.746-3.8125-17.32-10-3.5742-6.1875-3.5742-13.812 0-20 3.5742-6.1875 10.176-10 17.32-10h38.98c-3.9961-44.379-21.441-86.48-50-120.68l-27.559 27.539c-5.082 4.9062-12.375 6.7695-19.184 4.9023-6.8125-1.8672-12.133-7.1875-14-14-1.8672-6.8086-0.003906-14.102 4.9023-19.184l27.539-27.539c-34.199-28.566-76.301-46.016-120.68-50.02v38.98c0 7.1445-3.8125 13.746-10 17.32-6.1875 3.5742-13.812 3.5742-20 0-6.1875-3.5742-10-10.176-10-17.32v-38.98c-44.379 3.9961-86.48 21.441-120.68 50l27.539 27.539c3.8594 3.7266 6.0586 8.8477 6.1055 14.215 0.046875 5.3633-2.0625 10.52-5.8555 14.316-3.793 3.793-8.9531 5.9023-14.316 5.8555-5.3672-0.046874-10.484-2.2461-14.215-6.1055l-27.539-27.52c-28.566 34.199-46.016 76.301-50.02 120.68h38.98c7.1445 0 13.746 3.8125 17.32 10 3.5742 6.1875 3.5742 13.812 0 20-3.5742 6.1875-10.176 10-17.32 10h-39c4.0938 44.359 21.527 86.438 50 120.7l27.559-27.559c5.082-4.9062 12.371-6.7695 19.184-4.9023 6.8125 1.8672 12.133 7.1875 14 14 1.8672 6.8086 0.003906 14.102-4.9023 19.184l-27.52 27.539c18.215 15.258 38.816 27.422 60.98 36 19.805-2.6133 39.73-4.1719 59.699-4.6797v-20.281c0-7.1445 3.8125-13.746 10-17.32 6.1875-3.5742 13.812-3.5742 20 0 6.1875 3.5742 10 10.176 10 17.32v20.281c22.781 0.60156 43.199 2.1602 61.102 4.1992 21.617-8.6016 41.715-20.605 59.539-35.559l-27.5-27.5c-4.9062-5.082-6.7695-12.375-4.9023-19.184 1.8672-6.8125 7.1875-12.133 14-14 6.8086-1.8672 14.102-0.003906 19.184 4.9023zm-121.42-113.14c0 6.6875-3.3398 12.93-8.8984 16.641l-60 40c-4.4141 2.9414-9.8164 4.0117-15.02 2.9727-5.2031-1.0352-9.7773-4.1016-12.723-8.5117-2.9414-4.4141-4.0117-9.8164-2.9727-15.02 1.0352-5.2031 4.1016-9.7773 8.5117-12.723l51.102-34.059v-89.301c0-7.1445 3.8125-13.746 10-17.32 6.1875-3.5742 13.812-3.5742 20 0 6.1875 3.5742 10 10.176 10 17.32z" fill="#00b395"/>
</svg>
