<?xml version="1.0" encoding="UTF-8"?>
<svg width="1200pt" height="1200pt" version="1.1" viewBox="0 0 1200 1200" xmlns="http://www.w3.org/2000/svg">
 <path d="m500.02 966.66h200.02c18.422 0 33.328 18.422 33.328 33.328v33.328c0 18.422-14.906 33.328-33.328 33.328h-200.02c-18.422 0-33.328-18.422-33.328-33.328v-33.328c0-18.422 14.906-33.328 33.328-33.328z" fill="#00b395"/>
 <path d="m391.69 849.98h166.69c18.422 0 33.328 18.422 33.328 33.328v33.328c0 18.422-14.906 33.328-33.328 33.328h-166.69c-18.422 0-33.328-18.422-33.328-33.328v-33.328c0-18.422 14.906-33.328 33.328-33.328z" fill="#00b395"/>
 <path d="m300 966.66h116.67c18.422 0 33.328 18.422 33.328 33.328v33.328c0 18.422-14.906 33.328-33.328 33.328h-116.67c-18.422 0-33.328-18.422-33.328-33.328v-33.328c0-18.422 14.906-33.328 33.328-33.328z" fill="#00b395"/>
 <path d="m641.68 849.98h166.69c18.422 0 33.328 18.422 33.328 33.328v33.328c0 18.422-14.906 33.328-33.328 33.328h-166.69c-18.422 0-33.328-18.422-33.328-33.328v-33.328c0-18.422 14.906-33.328 33.328-33.328z" fill="#00b395"/>
 <path d="m783.32 966.66h116.67c18.422 0 33.328 18.422 33.328 33.328v33.328c0 18.422-14.906 33.328-33.328 33.328h-116.67c-18.422 0-33.328-18.422-33.328-33.328v-33.328c0-18.422 14.906-33.328 33.328-33.328z" fill="#00b395"/>
 <path d="m767.34 276.61c-40.875-5.8125-93.891-9.2344-150.71-9.7969v-50.156h50.016c64.453 0 116.67-52.219 116.67-116.67v-11.672h-66.656c-62.766 0-113.81 49.641-116.44 111.75-0.09375 0-0.14062-0.046875-0.23437-0.046875s-0.14063 0.046875-0.23438 0.046875c-2.625-62.109-53.672-111.7-116.44-111.7h-66.656v11.672c0 64.453 52.219 116.67 116.67 116.67h50.016v50.109c-56.812 0.5625-109.83 3.9844-150.71 9.7969-59.484 8.4844-82.641 19.734-82.641 40.078v134.16c-84.094 8.3906-150 79.547-150 165.84v450c0 27.562 22.406 50.016 50.016 50.016h699.98c27.562 0 50.016-22.406 50.016-50.016v-450c0-86.25-65.906-157.45-150-165.84v-134.16c0-20.344-23.156-31.594-82.641-40.078zm32.953 40.078c-29.438 7.4531-91.312 15.562-183.61 16.5v-32.953c92.297 0.9375 154.22 9.0469 183.61 16.5zm-128.63 362.48c0 29.438-23.531 54.047-54.984 60.609v18.562c0 9.1875-7.4531 16.688-16.688 16.688-9.1875 0-16.688-7.4531-16.688-16.688v-18.562c-31.453-6.6094-54.984-31.172-54.984-60.609 0-9.1875 7.4531-16.688 16.688-16.688 9.1875 0 16.688 7.4531 16.688 16.688 0 11.297 9 21.188 21.656 26.016v-57.094c-31.453-6.6094-54.984-31.172-54.984-60.609s23.531-54.047 54.984-60.609v-18.562c0-9.1875 7.4531-16.688 16.688-16.688 9.1875 0 16.688 7.4531 16.688 16.688v18.562c31.453 6.6094 54.984 31.172 54.984 60.609 0 9.1875-7.4531 16.688-16.688 16.688-9.1875 0-16.688-7.4531-16.688-16.688 0-11.297-9-21.188-21.656-26.016v57.094c31.453 6.6094 54.984 31.172 54.984 60.609zm-88.359-378.98v32.953c-92.297-0.9375-154.22-9.0469-183.61-16.5 29.438-7.4531 91.312-15.562 183.61-16.5zm383.34 316.5v450c0 9.1875-7.5 16.688-16.688 16.688l-699.98-0.046875c-9.1875 0-16.688-7.5-16.688-16.688v-450c0-73.5 59.812-133.31 133.31-133.31 9.1875 0 16.688-7.4531 16.688-16.688v-120.14c12.469 3.8906 28.547 7.2188 49.312 10.219 40.875 5.8125 93.891 9.2344 150.71 9.7969v67.641c-102.66 8.4844-183.32 94.312-183.32 199.18 0 110.44 89.531 200.02 200.02 200.02 110.44 0 200.02-89.531 200.02-200.02 0-104.81-80.672-190.69-183.32-199.18v-67.641c56.812-0.5625 109.83-3.9844 150.71-9.7969 20.766-2.9531 36.844-6.2812 49.312-10.219v120.14c0 9.1875 7.4531 16.688 16.688 16.688 73.5 0 133.31 59.812 133.31 133.31z" fill="#00b395"/>
 <path d="m616.69 705.19c12.656-4.8281 21.656-14.766 21.656-26.016 0-11.297-9-21.188-21.656-26.016v52.078z" fill="#00b395"/>
 <path d="m561.66 587.48c0 11.297 9 21.188 21.656 26.016v-52.078c-12.656 4.8281-21.656 14.766-21.656 26.016z" fill="#00b395"/>
</svg>
