<?xml version="1.0" encoding="UTF-8"?>
<svg width="1200pt" height="1200pt" version="1.1" viewBox="0 0 1200 1200" xmlns="http://www.w3.org/2000/svg">
 <path d="m1014 931.2c0 56.398-14.398 100.8-42 133.2-27.602 32.398-64.801 49.199-111.6 49.199l-500.4 0.003906c-45.602 0-82.801-16.801-111.6-49.199-27.602-32.398-42-76.801-42-133.2 0-25.199 1.1992-49.199 2.3984-73.199s3.6016-49.199 8.3984-76.801c3.6016-27.602 9.6016-52.801 15.602-76.801s14.398-46.801 25.199-68.398c10.801-22.801 21.602-40.801 36-57.602 13.199-15.602 30-28.801 49.199-37.199 19.199-9.6016 39.602-14.398 63.602-14.398h12c-49.199-51.602-74.398-112.8-74.398-184.8 0-74.398 26.398-138 79.199-189.6 52.801-52.801 116.4-79.199 189.6-79.199 74.398 0 138 26.398 189.6 79.199 52.801 52.801 79.199 116.4 79.199 189.6 0 72-25.199 133.2-74.398 184.8h10.801 1.1992c22.801 0 44.398 4.8008 62.398 14.398 19.199 9.6016 36 21.602 49.199 37.199 13.199 15.602 25.199 34.801 36 57.602 10.801 22.801 18 45.602 25.199 68.398 6 24 10.801 49.199 15.602 76.801 3.6016 27.602 7.1992 52.801 8.3984 76.801-3.5977 23.996-2.3984 49.195-2.3984 73.195zm-154.8-235.2c0-8.3984-3.6016-16.801-9.6016-22.801l-45.598-45.598c-6-6-14.398-9.6016-22.801-9.6016-8.3984 0-16.801 3.6016-22.801 9.6016l-222 220.8-99.602-99.602c-6-6-14.398-9.6016-22.801-9.6016-8.3984 0-16.801 3.6016-22.801 9.6016l-45.602 45.602c-6 6-9.6016 14.398-9.6016 22.801 0 8.3984 3.6016 16.801 9.6016 22.801l122.41 122.4 45.602 45.602c6 6 14.398 9.6016 22.801 9.6016 8.3984 0 16.801-3.6016 22.801-9.6016l289.2-289.2c7.1953-5.9961 10.793-14.398 10.793-22.797z" fill="#00b395"/>
</svg>
