<?xml version="1.0" encoding="UTF-8"?>
<svg width="1200pt" height="1200pt" version="1.1" viewBox="0 0 1200 1200" xmlns="http://www.w3.org/2000/svg">
 <path d="m568.5 620.26 284.63 439.87c-75 41.25-161.26 64.875-253.13 64.875-289.5 0-525-235.5-525-525 0-276.74 215.26-504.37 487.5-523.5v523.5c0 7.125 2.25 14.25 6 20.25zm519-57.75h-450v26.25l278.26 430.5c127.13-96 209.26-248.26 209.26-419.26 0-20.625-16.875-37.5-37.5-37.5zm-300-112.5v-337.5c0-20.719-16.781-37.5-37.5-37.5s-37.5 16.781-37.5 37.5v337.5c0 20.719 16.781 37.5 37.5 37.5s37.5-16.781 37.5-37.5zm150 0v-150c0-20.719-16.781-37.5-37.5-37.5s-37.5 16.781-37.5 37.5v150c0 20.719 16.781 37.5 37.5 37.5s37.5-16.781 37.5-37.5zm150 0v-225c0-20.719-16.781-37.5-37.5-37.5s-37.5 16.781-37.5 37.5v225c0 20.719 16.781 37.5 37.5 37.5s37.5-16.781 37.5-37.5z" fill="#00b395"/>
</svg>
