<?xml version="1.0" encoding="UTF-8"?>
<svg width="1200pt" height="1200pt" version="1.1" viewBox="0 0 1200 1200" xmlns="http://www.w3.org/2000/svg">
 <path d="m1043.6 699.74c-1.9219-8.3906-211.03 75.188-218.34 76.5 4.2656 81.984-83.719 148.13-161.68 121.31l-136.82-41.625c-23.344-7.5469-12.844-42.562 10.875-35.812 0 0 137.02 41.625 137.02 41.625 49.078 16.547 107.02-18.984 112.17-71.25 5.2031-33.328-11.766-67.875-40.688-85.312l-123.42-75c-60.422-36.75-134.48-40.312-198.28-9.5625-132.42 64.875-132.05 65.812-131.68 66.75 131.68-66.75-1.125-2.8125-1.125-2.8125 7.3125 21.516 11.766 54.375 15.562 74.25l35.812 201.19c2.8125 16.312 1.5 32.812-4.3125 48l343.26 40.5c46.594 5.6719 94.641-5.1094 134.48-30l270.66-168.94c69-42.234 37.312-150.47-43.5-149.81z" fill="#00b395"/>
 <path d="m265.36 738.74-4.875-27.75c-4.7812-29.859-35.391-50.531-65.109-45.188l-73.922 12.938c-14.812 2.4375-27.75 10.688-36.375 23.062-8.625 12.188-11.812 27-9.1875 41.625l45.562 255.56c4.6875 27 28.5 46.125 55.312 46.125 3.1875 0.60937 78.188-12.797 83.672-13.688 29.672-4.5938 51.469-35.344 45.562-64.875l-40.688-227.81z" fill="#00b395"/>
 <path d="m750.24 525c14.25 0 28.125-1.125 41.625-3.1875l76.734 72.938c11.203 11.625 32.25 2.3438 31.688-13.5v-103.88c158.58-120.66 45.703-329.48-150.05-327.37-298.69 10.547-298.64 364.45 0 375zm56.25-93.75h-112.55c-24.609-0.46875-24.656-37.031 0-37.5h112.55c24.609 0.46875 24.656 37.031 0 37.5zm-112.55-187.5h112.55c24.609 0.46875 24.656 37.031 0 37.5h-112.55c-24.609-0.46875-24.656-37.031 0-37.5zm-56.25 75h225.1c24.609 0.46875 24.703 37.031 0 37.5h-225.1c-24.562-0.46875-24.703-37.031 0-37.5z" fill="#00b395"/>
</svg>
