<?xml version="1.0" encoding="UTF-8"?>
<svg width="1200pt" height="1200pt" version="1.1" viewBox="0 0 1200 1200" xmlns="http://www.w3.org/2000/svg">
 <path d="m951.3 448.44-166.32 1.0781v195.24c-0.027344 16.207-5.3203 31.973-15.078 44.914-9.7617 12.941-23.465 22.363-39.043 26.844v272.16h176.04l24-289.8c0.14844-5.3633 2.3438-10.469 6.1367-14.262 3.7969-3.7969 8.8984-5.9922 14.266-6.1367 8.9414-0.007813 17.512-3.5625 23.836-9.8828 6.3203-6.3242 9.875-14.898 9.8828-23.836v-162.6c-0.007812-8.9414-3.5625-17.516-9.8828-23.836-6.3242-6.3242-14.895-9.8789-23.836-9.8828zm-207.12 196.32v-222.6c-0.007813-8.9414-3.5625-17.516-9.8828-23.836-6.3242-6.3242-14.895-9.8789-23.836-9.8828h-218.28c-8.9414 0.003906-17.516 3.5586-23.836 9.8828-6.3242 6.3203-9.8789 14.895-9.8828 23.836v222.6c0.003906 8.9375 3.5586 17.512 9.8828 23.836 6.3203 6.3203 14.895 9.875 23.836 9.8828 5.4102 0 10.598 2.1484 14.426 5.9727 3.8242 3.8281 5.9727 9.0156 5.9727 14.426v361.8h177.48v-361.8c0-5.4102 2.1523-10.598 5.9766-14.426 3.8242-3.8242 9.0156-5.9727 14.426-5.9727 8.9414-0.007813 17.512-3.5625 23.836-9.8828 6.3203-6.3242 9.875-14.898 9.8828-23.836zm-326.52 0v-196.32h-168.96c-8.9414 0.003906-17.512 3.5586-23.836 9.8828-6.3203 6.3203-9.875 14.895-9.8828 23.836v162.6c0.007812 8.9375 3.5625 17.512 9.8828 23.836 6.3242 6.3203 14.895 9.875 23.836 9.8828 5.4609-0.17188 10.75 1.9219 14.613 5.7852s5.9609 9.1523 5.7891 14.613l24 289.8h178.68v-272.16c-15.578-4.4805-29.281-13.902-39.043-26.844-9.7617-12.941-15.051-28.707-15.078-44.914zm453.12-231.6c24.891 0 48.762-9.8867 66.363-27.488 17.598-17.602 27.488-41.473 27.488-66.363s-9.8906-48.762-27.488-66.363c-17.602-17.602-41.473-27.488-66.363-27.488s-48.766 9.8867-66.363 27.488c-17.602 17.602-27.488 41.473-27.488 66.363 0.03125 24.883 9.9297 48.734 27.52 66.332 17.594 17.594 41.449 27.496 66.332 27.531zm-264.78-63.961c27.648-0.03125 54.156-11.043 73.688-30.613 19.531-19.57 30.492-46.098 30.473-73.746-0.019531-27.648-11.023-54.16-30.586-73.699s-46.086-30.512-73.734-30.5c-27.648 0.011719-54.164 11-73.711 30.555-19.547 19.559-30.527 46.074-30.527 73.727 0.03125 27.664 11.043 54.191 30.617 73.742 19.578 19.555 46.113 30.535 73.781 30.535zm-276.72 63.973c24.891 0.003906 48.766-9.8828 66.367-27.48 17.602-17.602 27.492-41.473 27.496-66.363 0-24.891-9.8867-48.766-27.484-66.367-17.602-17.602-41.473-27.492-66.363-27.492-24.895 0-48.766 9.8867-66.367 27.488-17.602 17.598-27.488 41.473-27.488 66.363 0.042969 24.863 9.9336 48.699 27.512 66.289 17.574 17.59 41.402 27.5 66.266 27.562z" fill="#00b395"/>
</svg>
