<?xml version="1.0" encoding="UTF-8"?>
<svg width="1200pt" height="1200pt" version="1.1" viewBox="0 0 1200 1200" xmlns="http://www.w3.org/2000/svg">
 <path d="m742.97 662.53 112.55-64.688c19.453-10.875 33.609-24.844 44.766-44.156l237.71-411.66c16.312-28.219 6.5625-64.594-21.656-80.859l-40.266-23.25c-28.219-16.312-64.594-6.5625-80.859 21.656l-237.71 411.66c-11.156 19.312-16.172 38.531-15.844 60.844l1.3594 130.4zm355.74-335.11h39.656c17.484 0 31.453 14.016 31.406 31.5l-1.3125 779.76c-0.046875 17.297-14.156 31.359-31.406 31.359l-991.03-0.046874c-56.438 0-91.875-26.906-106.88-61.359-11.859-27.281-11.766-59.438 0.09375-86.672 15.094-34.734 50.672-61.875 106.83-61.875 20.953 0 37.969-17.016 37.969-37.969v-594.74h588.74l-66.141 114.52c-16.359 28.359-24.047 58.031-23.719 90.75l1.2188 118.27h-154.78c-49.406 0-89.906 40.453-89.906 90 0 49.594 40.359 89.906 89.906 89.906h30.188c8.5781 0 16.359 3.5156 22.031 9.1875 19.547 19.547 5.9062 53.391-22.031 53.391h-156.98c-16.219 0-29.344 13.125-29.344 29.344s13.125 29.344 29.344 29.344h156.98c49.406 0 89.906-40.453 89.906-90 0-49.594-40.359-89.906-89.906-89.906h-30.188c-8.5781 0-16.359-3.5156-22.031-9.1875-19.547-19.547-5.9062-53.391 22.031-53.391h155.34c0.23438 24.094 26.203 38.906 47.109 26.906l152.63-87.703c28.5-16.031 50.25-37.5 66.609-65.812l147.61-255.66zm-1068.3-202.97 1.9219 791.68c21.047-14.109 46.266-24.328 75.703-29.062v-846.56c0-7.4062-7.4062-12.469-14.297-9.75-39.797 15.609-63.328 50.812-63.328 93.75z" fill="#00b395" fill-rule="evenodd"/>
</svg>
