<?xml version="1.0" encoding="UTF-8"?>
<svg width="1200pt" height="1200pt" version="1.1" viewBox="0 0 1200 1200" xmlns="http://www.w3.org/2000/svg">
 <path d="m941.48 214.19c0.14844-9.332 7.8359-16.777 17.168-16.641l113.08 2.1289c9.332 0.14844 16.777 7.8359 16.629 17.168l-2.1289 113.08c-0.14844 9.332-7.8359 16.777-17.168 16.641-9.332-0.14844-16.777-7.8359-16.629-17.168l1.3594-72.086c-86.977 82.996-213.52 179.35-350.41 269.39-150.07 98.707-312.83 189.98-449.71 247.85-8.5977 3.625-18.516-0.41797-22.141-9.0117-3.625-8.5977 0.41797-18.516 9.0117-22.141 135-57.086 295.81-147.29 444.27-244.93 135.37-89.031 260.27-184.11 345.73-265.74l-72.441-1.3594c-9.3242-0.15625-16.77-7.8438-16.625-17.176zm-643.84 721.2h-101.07c-7.4805 0-13.566 6.0977-13.566 13.566v197.18c0 7.4688 6.0977 13.566 13.566 13.566h101.07c7.4805 0 13.566-6.0977 13.566-13.566v-197.16c0.015625-7.4844-6.0859-13.582-13.566-13.582zm-58.773-447.28h-179.28c2.793 72.184 23.328 139.82 57.379 198.66l155.09-89.547c-18.809-32.484-30.562-69.551-33.195-109.11zm25.211-128.12-155.28-89.645c-29.129 55.273-46.617 117.64-49.188 183.83h179.28c2.2266-33.625 11.059-65.449 25.188-94.188zm209.4-140.4v-179.28c-66.207 2.5703-128.58 20.043-183.86 49.199l89.656 155.28c28.727-14.141 60.562-22.957 94.199-25.199zm-123.46 42.113-89.645-155.28c-54.258 34.297-100.32 80.363-134.62 134.61l155.28 89.656c18.297-27.234 41.758-50.695 68.988-68.988zm154.92 547.04h-101.07c-7.4805 0-13.566 6.0977-13.566 13.566v323.83c0 7.4688 6.0977 13.566 13.566 13.566h101.07c7.4805 0 13.566-6.0977 13.566-13.566v-323.83c0.015626-7.4688-6.082-13.566-13.566-13.566zm414.6-253.32h-101.07c-7.4805 0-13.566 6.0977-13.566 13.566v577.14c0 7.4688 6.0977 13.566 13.566 13.566h101.07c7.4805 0 13.566-6.0977 13.566-13.566v-577.14c0-7.4688-6.0977-13.566-13.566-13.566zm-210.71-210.37s51.699-29.852 155.09-89.547c-35.031-60.551-84.379-111.8-143.4-149.11l-89.656 155.3c31.91 21.441 58.652 49.969 77.961 83.352zm418 83.715h-101.07c-7.4805 0-13.566 6.0977-13.566 13.566v703.8c0 7.4688 6.0977 13.566 13.566 13.566h101.07c7.4805 0 13.566-6.0977 13.566-13.566v-703.8c0-7.4688-6.0977-13.57-13.566-13.57zm-414.59 253.31h-101.07c-7.4805 0-13.566 6.0977-13.566 13.566v450.49c0 7.4688 6.0977 13.566 13.566 13.566h101.07c7.4805 0 13.566-6.0977 13.566-13.566v-450.49c0-7.4688-6.0977-13.566-13.566-13.566zm-221.8-277.65c6.332 0 12.453 0.88281 18.246 2.5234l94.371-60.941c3.625-2.3398 8.2539-1.8477 11.301 1.1992 3.0508 3.0508 3.5391 7.6914 1.1992 11.301l-60.941 94.371c1.6406 5.8047 2.5234 11.914 2.5234 18.246 0 36.844-29.867 66.711-66.711 66.711s-66.711-29.867-66.711-66.711c0.011719-36.836 29.879-66.699 66.723-66.699zm-22.395 66.707c0 12.367 10.027 22.395 22.395 22.395 12.367 0 22.395-10.027 22.395-22.395 0-12.367-10.027-22.395-22.395-22.395-12.367 0-22.395 10.027-22.395 22.395zm223.23-381.65c-55.273-29.152-117.66-46.629-183.87-49.199v179.28c33.637 2.2422 65.473 11.07 94.211 25.211z" fill="#00b395"/>
</svg>
