<?xml version="1.0" encoding="UTF-8"?>
<svg width="1200pt" height="1200pt" version="1.1" viewBox="0 0 1200 1200" xmlns="http://www.w3.org/2000/svg">
 <path d="m504 480h-85.68c19.078-106.32 60-168 85.68-168s66.719 61.68 85.801 168h97.078c-21.84-144-84-264-182.88-264s-161.16 120-183 264h-105l144 144z" fill="#00b395"/>
 <path d="m504 888c-25.441 0-66.719-61.68-85.801-168h-97.078c21.84 144 84 264 182.88 264 30.367-0.27344 59.562-11.77 81.961-32.281-18.031-30.301-32.68-62.496-43.68-96-14.281 21-27.48 32.281-38.281 32.281z" fill="#00b395"/>
 <path d="m792 312c24 0 63.84 57.719 84 157.44 29.996-14.059 63.977-17.117 96-8.6406-24-135.48-85.199-244.8-180-244.8-30.367 0.28516-59.555 11.781-81.961 32.281 18.031 30.305 32.68 62.496 43.68 96 14.281-21 27.48-32.281 38.281-32.281z" fill="#00b395"/>
 <path d="m876 730.56c-20.16 99.723-60 157.44-84 157.44s-66.719-61.68-85.68-168h85.68l-144-144-144 144h105.12c21.84 144 84 264 182.88 264 94.801 0 156-109.32 180-244.68-32.023 8.4766-66.004 5.418-96-8.6406z" fill="#00b395"/>
 <path d="m984 600c0 26.508-21.492 48-48 48s-48-21.492-48-48 21.492-48 48-48 48 21.492 48 48z" fill="#00b395"/>
</svg>
